<svg xmlns="http://www.w3.org/2000/svg" width="16" height="15.078" viewBox="0 0 16 15.078">
  <defs>
    <style>.a{fill:#ff5b34;}</style>
  </defs>
  <g transform="translate(0 -14.759)">
    <g transform="translate(0 14.759)">
      <path class="a" d="M15.668,26.3l-5.652-10.39a2.344,2.344,0,0,0-4.031,0L.333,26.3a2.343,2.343,0,0,0,2.015,3.54h11.3A2.343,2.343,0,0,0,15.668,26.3ZM8,27.961a.938.938,0,1,1,.938-.937A.939.939,0,0,1,8,27.961Zm.938-3.75a.937.937,0,1,1-1.875,0V19.524a.937.937,0,1,1,1.875,0Z" transform="translate(0 -14.759)"/>
    </g>
  </g>
</svg>